<svg xmlns="http://www.w3.org/2000/svg" viewBox="0 0 512 512">
  <defs>
    <linearGradient id="sky" x1="0" y1="0" x2="0" y2="1"><stop offset="0" stop-color="#a6d3ef" /><stop offset="0.62" stop-color="#f6ecd6" /><stop offset="1" stop-color="#fcdcae" /></linearGradient>
    <radialGradient id="glow" cx="0.5" cy="0.5" r="0.5"><stop offset="0" stop-color="#fff7d6" stop-opacity="1" /><stop offset="1" stop-color="#fff2c2" stop-opacity="0" /></radialGradient>
    <linearGradient id="hill" x1="0" y1="0" x2="0" y2="1"><stop offset="0" stop-color="#9dcf66" /><stop offset="1" stop-color="#4f8a32" /></linearGradient>
    <linearGradient id="leaf" x1="0" y1="0" x2="1" y2="1"><stop offset="0" stop-color="#b0de72" /><stop offset="1" stop-color="#3b7a28" /></linearGradient>
    <linearGradient id="pot" x1="0" y1="0" x2="1" y2="0"><stop offset="0" stop-color="#b85a33" /><stop offset="0.42" stop-color="#e79a6e" /><stop offset="1" stop-color="#a94f2c" /></linearGradient>
    <linearGradient id="petal" x1="0" y1="0" x2="0" y2="1"><stop offset="0" stop-color="#ffd0da" /><stop offset="1" stop-color="#e46d8d" /></linearGradient>
    <radialGradient id="heart" cx="0.4" cy="0.35" r="0.7"><stop offset="0" stop-color="#fff4a6" /><stop offset="1" stop-color="#eba21a" /></radialGradient>
    <clipPath id="r"><rect width="512" height="512" rx="112" /></clipPath>
  </defs>
  <g clip-path="url(#r)">
    <rect width="512" height="512" fill="url(#sky)" />
    <circle cx="376" cy="178" r="150" fill="url(#glow)" />
    <circle cx="376" cy="178" r="46" fill="#fff6d4" />
    <path d="M0 356c80-34 160-40 256-22s176 20 256-12v190H0z" fill="#bcd99b" />
    <path d="M0 410c96-40 200-44 300-16 80 22 150 18 212-4v122H0z" fill="url(#hill)" />
    <path d="M256 352c0-58 4-104-6-150" fill="none" stroke="#3f7a2a" stroke-width="17" stroke-linecap="round" />
    <path d="M250 262c-30-56-96-70-140-36 32 52 92 64 140 36z" fill="url(#leaf)" />
    <path d="M253 236c22-62 90-84 136-54-28 52-88 74-136 54z" fill="url(#leaf)" />
    <g transform="translate(250 150)">
      <g fill="url(#petal)">
        <ellipse cx="0" cy="-44" rx="30" ry="40" />
        <ellipse cx="0" cy="-44" rx="30" ry="40" transform="rotate(72)" />
        <ellipse cx="0" cy="-44" rx="30" ry="40" transform="rotate(144)" />
        <ellipse cx="0" cy="-44" rx="30" ry="40" transform="rotate(216)" />
        <ellipse cx="0" cy="-44" rx="30" ry="40" transform="rotate(288)" />
      </g>
      <circle r="26" fill="url(#heart)" />
    </g>
    <path d="M168 372h176l-22 124H190z" fill="url(#pot)" />
    <rect x="152" y="344" width="208" height="42" rx="12" fill="#d67c4e" />
    <rect x="152" y="344" width="208" height="12" rx="6" fill="#eeaa82" />
    <ellipse cx="256" cy="349" rx="86" ry="10" fill="#5a3b24" />
  </g>
</svg>
